<?xml version="1.0" encoding="iso-8859-1"?>
<!-- Generator: Adobe Illustrator 17.1.0, SVG Export Plug-In . SVG Version: 6.00 Build 0)  -->
<!DOCTYPE svg PUBLIC "-//W3C//DTD SVG 1.1//EN" "http://www.w3.org/Graphics/SVG/1.1/DTD/svg11.dtd">
<svg xmlns="http://www.w3.org/2000/svg" xmlns:xlink="http://www.w3.org/1999/xlink" version="1.1" id="Capa_1" x="0px" y="0px" viewBox="0 0 219.808 219.808" style="enable-background:new 0 0 219.808 219.808;" xml:space="preserve" width="512px" height="512px">
<path d="M186.119,56.998c0-2.209-1.791-4-4-4h-12.156C166.233,23.164,140.731,0,109.904,0S53.575,23.164,49.845,52.998H37.689  c-2.209,0-4,1.791-4,4c0,40.683,32.042,74.021,72.214,76.109v72.46c-27.139,0.557-48.527,6.718-48.527,14.242h105.054  c0-7.524-21.388-13.686-48.527-14.242v-72.46C154.077,131.019,186.119,97.681,186.119,56.998z M146.491,70.026  c1.783,1.304,2.172,3.807,0.868,5.59l-11.31,15.469c-0.783,1.071-2,1.64-3.232,1.64c-0.819,0-1.646-0.251-2.357-0.771  c-1.783-1.304-2.172-3.807-0.868-5.59l11.31-15.469C142.204,69.111,144.707,68.721,146.491,70.026z M141.895,57.84l-24.306,33.246  c-0.783,1.071-2,1.64-3.232,1.64c-0.819,0-1.646-0.251-2.357-0.771c-1.783-1.304-2.172-3.806-0.868-5.59l24.306-33.246  c1.303-1.783,3.806-2.173,5.59-0.868C142.81,53.554,143.198,56.056,141.895,57.84z M90.873,89.983l43.984-60.162  c1.303-1.783,3.805-2.173,5.59-0.868c1.783,1.304,2.172,3.806,0.868,5.59L97.331,94.705c-0.783,1.071-2,1.64-3.232,1.64  c-0.819,0-1.646-0.251-2.357-0.771C89.958,94.269,89.569,91.767,90.873,89.983z M109.904,125.212  c-36.271,0-66.02-28.456-68.099-64.214h7.564c0.245,33.177,27.301,60.094,60.534,60.094s60.289-26.917,60.534-60.094h7.565  C175.924,96.756,146.175,125.212,109.904,125.212z" fill="#e2216c"/>
<g>
</g>
<g>
</g>
<g>
</g>
<g>
</g>
<g>
</g>
<g>
</g>
<g>
</g>
<g>
</g>
<g>
</g>
<g>
</g>
<g>
</g>
<g>
</g>
<g>
</g>
<g>
</g>
<g>
</g>
</svg>
